<svg xmlns="http://www.w3.org/2000/svg" viewBox="0 0 280 48" width="280" height="48">
  <defs>
    <linearGradient id="leafGrad" x1="0%" y1="0%" x2="100%" y2="100%">
      <stop offset="0%" style="stop-color:#66BB6A"/>
      <stop offset="100%" style="stop-color:#43A047"/>
    </linearGradient>
    <linearGradient id="selGrad" x1="0%" y1="0%" x2="100%" y2="0%">
      <stop offset="0%" style="stop-color:#E64A19"/>
      <stop offset="100%" style="stop-color:#FF5722"/>
    </linearGradient>
  </defs>
  <!-- Leaf Icon -->
  <g transform="translate(4, 6)">
    <path d="M18,2 C18,2 32,6 32,22 C32,30 26,36 18,36 C10,36 4,30 4,22 C4,6 18,2 18,2Z" fill="url(#leafGrad)" opacity="0.9"/>
    <path d="M18,8 C18,8 18,28 18,34" stroke="white" stroke-width="1.8" fill="none" stroke-linecap="round" opacity="0.7"/>
    <path d="M18,14 C14,12 11,14 11,14" stroke="white" stroke-width="1.3" fill="none" stroke-linecap="round" opacity="0.5"/>
    <path d="M18,20 C22,18 25,20 25,20" stroke="white" stroke-width="1.3" fill="none" stroke-linecap="round" opacity="0.5"/>
    <path d="M18,26 C14,24 12,26 12,26" stroke="white" stroke-width="1.3" fill="none" stroke-linecap="round" opacity="0.5"/>
  </g>
  <!-- Text: Organik -->
  <text x="44" y="34" font-family="'Outfit', 'Arial Black', sans-serif" font-weight="800" font-size="28" fill="#66BB6A" letter-spacing="0.5">Organik</text>
  <!-- Text: SEL -->
  <text x="190" y="34" font-family="'Outfit', 'Arial Black', sans-serif" font-weight="800" font-size="28" fill="url(#selGrad)" letter-spacing="0.5">SEL</text>
</svg>
