<svg xmlns="http://www.w3.org/2000/svg" viewBox="0 0 200 380" width="200" height="380">
  <text font-family="'Arial Black', 'Segoe UI Black', sans-serif" font-weight="900" font-size="72" letter-spacing="8">
    <tspan x="30" y="75" fill="#2E7D32">OR</tspan>
    <tspan x="30" y="150" fill="#2E7D32">GA</tspan>
    <tspan x="30" y="225" fill="#2E7D32">Nİ</tspan>
    <tspan x="122" y="225" fill="#2E7D32">K</tspan>
    <tspan x="30" y="300" fill="#C62828">SEL</tspan>
  </text>
  <g transform="translate(98, 175)" fill="#2E7D32">
    <path d="M0,0 C5,-15 20,-25 20,-25 C18,-20 12,-12 8,-5 C12,-10 20,-18 28,-20 C20,-12 10,-2 0,0Z" opacity="0.9"/>
    <path d="M5,-3 C8,-12 16,-18 16,-18 C15,-14 11,-9 8,-4 C10,-8 15,-13 20,-15 C15,-10 8,-2 5,-3Z" opacity="0.7"/>
  </g>
</svg>
